<?xml version="1.0" encoding="UTF-8"?><svg id="a" xmlns="http://www.w3.org/2000/svg" viewBox="0 0 614.08 171.83"><path d="m323.84,53.1c.04-6.51,1.84-11.55,5.41-15.12s8.49-5.35,14.77-5.35h3.8v5.15h-4.5c-4.33,0-7.65,1.43-9.97,4.3s-3.52,6.54-3.6,11.03c.08,4.48,1.28,8.16,3.6,11.03,2.32,2.87,5.65,4.3,9.97,4.3h4.5v5.15h-3.8c-6.28,0-11.2-1.78-14.77-5.35s-5.37-8.61-5.41-15.12Z" style="fill:#231f20;"/><path d="m377.78,68.43v5.15h-8.54c-1.6,0-2.86-.03-3.77-.09-.92-.06-2.06-.29-3.42-.7-1.37-.41-2.52-1.02-3.45-1.84-1.44-1.33-2.38-2.92-2.81-4.77-.43-1.85-.64-4.03-.64-6.52v-27.03h5.5v26.91c0,2.26.25,4.04.76,5.32,1.01,2.38,3.14,3.57,6.38,3.57h10Z" style="fill:#231f20;"/><path d="m406.38,32.63h5.5v28.08c0,4.64-1.2,8.04-3.6,10.21s-6.02,3.25-10.85,3.25-8.44-1.08-10.82-3.25c-2.38-2.16-3.57-5.57-3.57-10.21v-28.08h5.5v28.84c0,2.65.81,4.57,2.43,5.76,1.62,1.19,3.75,1.78,6.41,1.78s4.91-.59,6.55-1.78c1.64-1.19,2.46-3.11,2.46-5.76v-28.84Z" style="fill:#231f20;"/><path d="m424.93,73.57h-5.44v-27.9c0-4.02,1.3-7.29,3.89-9.83,2.59-2.53,5.8-3.8,9.62-3.8,4.21,0,7.38,1.06,9.51,3.19,2.12,2.13,3.19,4.73,3.19,7.81,0,3.94-1.83,6.77-5.5,8.48v.23c5.03,1.44,7.55,4.93,7.55,10.47,0,7.57-4.47,11.35-13.4,11.35h-7.31v-5.15h7.25c2.69,0,4.66-.55,5.91-1.64,1.25-1.09,1.87-2.85,1.87-5.26,0-2.11-.67-3.72-2.02-4.86-1.35-1.13-3.17-1.7-5.47-1.7h-5.79v-4.86h3.74c2.11,0,3.91-.58,5.41-1.73,1.5-1.15,2.25-2.7,2.25-4.65s-.58-3.43-1.73-4.68c-1.15-1.25-3.01-1.87-5.59-1.87-2.34,0-4.25.73-5.73,2.19-1.48,1.46-2.22,3.6-2.22,6.41v27.79Z" style="fill:#231f20;"/><path d="m491.09,73.57h-23.28v-31.18c0-2.89.92-5.21,2.75-6.96,1.25-1.17,2.65-1.93,4.21-2.28,1.56-.35,3.47-.53,5.73-.53h10.59v5.15h-11.35c-4.29,0-6.44,1.79-6.44,5.38v6.67h13.51v5.15h-13.51v13.45h17.78v5.15Z" style="fill:#231f20;"/><path d="m496.35,33.33v-.7h5.5v.7c0,7.8,2.75,13.28,8.25,16.44,3.08-1.72,5.24-3.94,6.46-6.67,1.23-2.73,1.84-5.99,1.84-9.77v-.7h5.62v1.23c0,8.11-3,14.21-9.01,18.31,6,4.17,9.01,10.28,9.01,18.31v3.1h-5.62v-2.57c0-3.78-.61-7.04-1.84-9.77-1.23-2.73-3.38-4.95-6.46-6.67-5.5,3.16-8.25,8.64-8.25,16.44v2.57h-5.5v-2.57c0-8.35,3-14.62,9.01-18.84-6.01-4.13-9.01-10.41-9.01-18.84Z" style="fill:#231f20;"/><path d="m535.95,73.57h-5.5v-26.91c0-4.6,1.24-8.19,3.71-10.76,2.48-2.57,5.76-3.86,9.86-3.86,4.37,0,7.75,1.25,10.15,3.74,2.4,2.5,3.6,5.67,3.6,9.54,0,2.42-.44,4.52-1.32,6.32-.88,1.79-2.06,3.18-3.54,4.15-1.48.98-3.06,1.7-4.74,2.16-1.68.47-3.43.7-5.26.7h-4.39v-5.15h5.03c2.61,0,4.67-.79,6.17-2.37,1.5-1.58,2.25-3.56,2.25-5.94s-.69-4.26-2.08-5.76c-1.38-1.5-3.36-2.25-5.94-2.25s-4.46.85-5.88,2.54c-1.42,1.7-2.14,3.93-2.14,6.7v27.14Z" style="fill:#231f20;"/><path d="m563.33,53.27c.04-3.24.53-6.16,1.46-8.77.94-2.61,2.24-4.85,3.92-6.7,1.68-1.85,3.69-3.28,6.03-4.27,2.34-.99,4.95-1.49,7.84-1.49s5.45.5,7.81,1.49c2.36.99,4.38,2.42,6.05,4.27,1.68,1.85,2.98,4.09,3.92,6.7.94,2.61,1.42,5.54,1.46,8.77-.04,3.24-.52,6.14-1.43,8.72-.92,2.57-2.21,4.76-3.89,6.55-1.68,1.79-3.7,3.18-6.05,4.15-2.36.97-4.98,1.46-7.87,1.46s-5.51-.49-7.87-1.46c-2.36-.97-4.38-2.36-6.05-4.15-1.68-1.79-2.97-3.98-3.89-6.55-.92-2.57-1.4-5.48-1.43-8.72Zm32.58,0c-.04-2.18-.36-4.25-.96-6.2-.61-1.95-1.48-3.66-2.63-5.12s-2.54-2.62-4.18-3.48c-1.64-.86-3.49-1.29-5.56-1.29s-3.92.43-5.56,1.29c-1.64.86-3.03,2.02-4.18,3.48s-2.03,3.17-2.63,5.12c-.61,1.95-.93,4.02-.97,6.2.04,2.22.36,4.29.97,6.2.6,1.91,1.48,3.57,2.63,4.97,1.15,1.4,2.54,2.52,4.18,3.33,1.64.82,3.49,1.23,5.56,1.23s3.92-.41,5.56-1.23c1.64-.82,3.03-1.93,4.18-3.33,1.15-1.4,2.03-3.06,2.63-4.97.6-1.91.93-3.98.96-6.2Z" style="fill:#231f20;"/><path d="m330.81,106.01h-2.75v-20.47h7.22c2.42,0,4.22.54,5.41,1.62,1.19,1.08,1.78,2.78,1.78,5.1v13.75h-2.75v-14.13c0-1.33-.41-2.29-1.21-2.88-.81-.59-1.88-.89-3.2-.89h-4.5v17.9Z" style="fill:#231f20;"/><path d="m356.76,85.53v2.57h-5.18c-1.97,0-2.95.8-2.95,2.4,0,.86.43,1.58,1.3,2.18.87.59,2.04,1.17,3.52,1.71.66.25,1.23.51,1.7.77.47.26.94.61,1.4,1.04.47.43.82.98,1.05,1.65.23.67.35,1.45.35,2.33,0,.98-.2,1.85-.61,2.62-.41.77-.94,1.37-1.58,1.81-.64.44-1.3.77-1.97.99-.67.22-1.33.35-1.97.37-.27.02-.66.03-1.17.03h-4.56v-2.57h4.48c1.33,0,2.41-.28,3.25-.83.84-.56,1.26-1.37,1.26-2.44,0-.53-.12-.99-.35-1.39-.23-.4-.57-.75-1.01-1.04-.44-.29-.89-.55-1.34-.76-.46-.21-1.01-.44-1.65-.67-.17-.06-.31-.11-.41-.15-3.06-1.17-4.59-3.08-4.59-5.73,0-1.64.53-2.86,1.58-3.67s2.43-1.21,4.12-1.21h5.35Z" style="fill:#231f20;"/><path d="m373.69,85.53v1.46c0,2.38-.44,4.56-1.33,6.54-.89,1.98-2.18,3.49-3.88,4.52v7.96h-2.75v-7.9c-1.7-1.01-3-2.49-3.92-4.43-.92-1.94-1.37-4.08-1.37-6.42v-1.73h2.81v1.46c0,2.01.29,3.73.86,5.16.57,1.43,1.57,2.61,3,3.52,2.55-1.7,3.83-4.59,3.83-8.69v-1.46h2.75Z" style="fill:#231f20;"/><path d="m387.38,85.53v2.57h-5.18c-1.97,0-2.95.8-2.95,2.4,0,.86.43,1.58,1.3,2.18.87.59,2.04,1.17,3.52,1.71.66.25,1.23.51,1.7.77.47.26.94.61,1.4,1.04.47.43.82.98,1.05,1.65.23.67.35,1.45.35,2.33,0,.98-.2,1.85-.61,2.62-.41.77-.94,1.37-1.58,1.81-.64.44-1.3.77-1.97.99-.67.22-1.33.35-1.97.37-.27.02-.66.03-1.17.03h-4.56v-2.57h4.48c1.33,0,2.41-.28,3.25-.83.84-.56,1.26-1.37,1.26-2.44,0-.53-.12-.99-.35-1.39-.23-.4-.57-.75-1.01-1.04-.44-.29-.89-.55-1.34-.76-.46-.21-1.01-.44-1.65-.67-.17-.06-.31-.11-.41-.15-3.06-1.17-4.59-3.08-4.59-5.73,0-1.64.53-2.86,1.58-3.67s2.43-1.21,4.12-1.21h5.35Z" style="fill:#231f20;"/><path d="m403.32,85.53h2.75v14.04c0,2.32-.6,4.02-1.8,5.1-1.2,1.08-3.01,1.62-5.43,1.62s-4.22-.54-5.41-1.62c-1.19-1.08-1.78-2.78-1.78-5.1v-14.04h2.75v14.42c0,1.33.4,2.29,1.21,2.88.81.59,1.88.89,3.2.89s2.46-.3,3.28-.89c.82-.59,1.23-1.55,1.23-2.88v-14.42Z" style="fill:#231f20;"/><path d="m428.59,91.06c0,1.31-.23,2.38-.7,3.23-.47.85-1.24,1.71-2.33,2.59s-1.84,1.49-2.28,1.84c-.44.35-.98.8-1.62,1.36-.64.56-1.22,1.13-1.73,1.71s-.83,1.07-.96,1.46h9.45v2.75h-12.4v-1.29c0-.41.04-.82.13-1.23.09-.41.28-.93.58-1.56.3-.63.78-1.38,1.45-2.22s2.38-2.33,5.15-4.43c1.54-1.19,2.31-2.64,2.31-4.36,0-.84-.3-1.55-.91-2.12s-1.47-.86-2.6-.86c-1.81,0-3.23,1.05-4.24,3.16l-2.17-1.81c1.46-2.67,3.57-4.01,6.32-4.01,2.05,0,3.65.51,4.81,1.52,1.16,1.01,1.74,2.44,1.74,4.27Z" style="fill:#231f20;"/><path d="m432.07,98.78c-.04-.45-.07-.94-.09-1.46s-.03-1.07-.03-1.64c0-1.29.08-2.56.25-3.82.17-1.26.5-2.37.99-3.35s1.21-1.76,2.14-2.37c.93-.6,2.15-.91,3.67-.91s2.84.31,3.77.94c.94.62,1.64,1.43,2.12,2.43.48.99.79,2.12.94,3.36.15,1.25.22,2.49.22,3.71s-.08,2.56-.23,3.83-.48,2.4-.98,3.41c-.5,1-1.21,1.82-2.14,2.44-.93.62-2.16.94-3.7.94-1.29,0-2.35-.21-3.19-.63-.84-.42-1.52-.98-2.03-1.68-.52-.7-.9-1.51-1.16-2.41-.25-.91-.44-1.84-.56-2.79Zm3.57,3.31c.62,1.09,1.75,1.64,3.36,1.64.82,0,1.5-.12,2.03-.35s.97-.65,1.3-1.24c.33-.59.57-1.41.7-2.46.14-1.04.2-2.37.2-3.99s-.07-2.92-.2-3.96c-.14-1.04-.37-1.87-.7-2.47-.33-.6-.77-1.02-1.3-1.26-.54-.23-1.21-.35-2.03-.35s-1.5.11-2.03.34c-.54.22-.97.64-1.3,1.24-.33.6-.57,1.42-.7,2.46-.14,1.03-.2,2.37-.2,4.01,0,3.2.29,5.33.88,6.41Z" style="fill:#231f20;"/><path d="m461.47,91.06c0,1.31-.23,2.38-.7,3.23-.47.85-1.24,1.71-2.33,2.59s-1.84,1.49-2.28,1.84c-.44.35-.98.8-1.62,1.36-.64.56-1.22,1.13-1.73,1.71s-.83,1.07-.96,1.46h9.45v2.75h-12.4v-1.29c0-.41.04-.82.13-1.23.09-.41.28-.93.58-1.56.3-.63.78-1.38,1.45-2.22s2.38-2.33,5.15-4.43c1.54-1.19,2.31-2.64,2.31-4.36,0-.84-.3-1.55-.91-2.12s-1.47-.86-2.6-.86c-1.81,0-3.23,1.05-4.24,3.16l-2.17-1.81c1.46-2.67,3.57-4.01,6.32-4.01,2.05,0,3.65.51,4.81,1.52,1.16,1.01,1.74,2.44,1.74,4.27Z" style="fill:#231f20;"/><path d="m477.67,99.57c0,2.11-.63,3.75-1.89,4.94-1.26,1.19-2.93,1.78-5.02,1.78-1.81,0-3.29-.34-4.43-1.02-1.14-.68-1.87-1.68-2.18-2.98l2.17-2.13c.21,1.11.7,1.98,1.45,2.62.75.63,1.72.95,2.91.95,2.67,0,4.01-1.38,4.01-4.15,0-2.48-1.51-3.71-4.53-3.71h-1.64v-2.75c1.19-.37,2.24-.98,3.16-1.83.92-.85,1.58-1.85,1.99-3h-8.54v-2.75h11.29v.61c0,3.28-1.26,5.68-3.77,7.22,1.64.37,2.89,1.09,3.74,2.16.86,1.07,1.29,2.42,1.29,4.04Z" style="fill:#231f20;"/><path d="m350.32,117.93v20c0,1.59-.88,2.38-2.64,2.38h-19.38v-22.39h22.02Zm-19.4,10.55v9.45h16.26c.33,0,.5-.15.5-.44v-17.18h-16.76v8.17Zm15.95-5.87v2.2h-4.27l1.1,5.76h.21c.21,0,.31-.13.31-.39v-4.01h2.09v4.5c0,1.4-.66,2.09-1.99,2.09h-.21l.21,1.15c.07.51.25.76.55.76h1.99v2.2h-3.35c-.93,0-1.46-.64-1.6-1.91l-.37-2.2h-1.73v-2.2h1.33l-1.02-5.76h-8.38v-2.2h7.99l-.31-1.75h2.38l.34,1.75h1.41l-.29-1.54h2.33l.26,1.54h1Zm-6.7,11.76v2.2h-8.4v-2.2h8.4Zm-7.75-7.96h6.81v4.71c0,1.03-.35,1.54-1.05,1.54h-5.76v-6.26Zm4.4,4.16c.14,0,.21-.1.21-.31v-1.78h-2.41v2.09h2.2Z" style="fill:#231f20;"/><path d="m378.17,138.04v2.49h-23.9v-2.49h23.9Zm-13.51-20.97h3.35v2.3h9.71v2.54h-23.12v-2.54h10.05v-2.3Zm-7.86,6.1h3.22l1.99,9.71c.1.49.36.73.76.73h2.38v2.51h-3.98c-1,0-1.62-.48-1.86-1.44l-2.51-11.52Zm15.71-.1h3.35l-1.75,9.69c-.44,2.25-1.54,3.38-3.3,3.38h-3.46v-2.59h2.3c.49,0,.89-.59,1.2-1.78l1.65-8.69Z" style="fill:#231f20;"/><path d="m381.84,120.86h9.5v-3.8h3.14v3.8h9.74v12.25c0,1.38-.73,2.07-2.2,2.07h-7.54v6.1h-3.14v-6.1h-9.5v-14.32Zm9.5,11.42v-8.61h-6.57v8.61h6.57Zm9.14,0c.54,0,.81-.25.81-.76v-7.85h-6.81v8.61h6Z" style="fill:#231f20;"/><path d="m408.84,119.92h3.25v17.8h6.08v-20.76h3.25v20.76h5.34c.44,0,.65-.18.65-.55v-17.25h3.25v18.62c0,1.26-.73,1.89-2.2,1.89h-19.61v-20.5Z" style="fill:#231f20;"/><path d="m458.61,121.36v2.72h-9.79l5.39,12.65c.3.8.65,1.2,1.05,1.2h3.46v2.7h-5.45c-.56,0-1.02-.46-1.39-1.39l-5.11-12.59-4.82,12.18c-.52,1.2-1.12,1.81-1.81,1.81h-5.55v-2.7h3.56c.58,0,1.18-.84,1.81-2.51l4.48-11.34h-9.74v-2.72h10.39v-4.29h3.22v4.29h10.29Z" style="fill:#231f20;"/><path d="m466.57,117.51h2.41v.1h2.93l1.73,1.39,2.04-1.39h3.35l-.76.5h5.89v10.37h.81v3.48h-1.05v1.15l-2.91,2.2h4.61v1.96h-4.82v2.41c0,.77-.59,1.15-1.78,1.15h-14.37v-1.86h12.67c.3,0,.45-.15.45-.44v-1.26h-16.26v-1.96h16.5l2.17-1.6h-16.86v-1.75h-1.26v-3.48h.94v-10.05h2.91c.26,0,.48-.31.65-.92Zm-1.49,14.45h16.89v-1.49h-16.89v1.49Zm4.08-9.92l2.67-1.81-2.85-2.28v.63c0,1.29-.71,1.94-2.12,1.94h-1.15v1.15h3.46v.37Zm-3.46,6.44h15.71v-1.65h-3.64v-1.81h3.64v-1.47h-3.14l-2.85,1.96,3.19,2.25h-3.35l-1.54-1.07-1.39.97h-3.35l3.09-2.15-2.91-2.04v.08h-3.46v1.36h3.46v1.91h-3.46v1.65Zm12.07-5.21v-.55h-2.85l-1.57-1.26-1.88,1.26h-2.3v.55h3.06l1.54,1.1,1.6-1.1h2.41Zm0-.94v-.76h3.64v-1.36h-3.64v-1.75l-2.59,1.78,2.59,2.09Z" style="fill:#231f20;"/><path d="m489.09,125.87h2.2v12.91c0,.98-.42,1.47-1.26,1.47h-2.02v-2.51h.76c.21,0,.31-.15.31-.44v-11.42Zm11.29-3.53v2.49h-4.9v16.57h-2.75v-16.57h-4.4v-2.49h12.04Zm-.73-4.71v2.41h-10.66v-2.41h10.66Zm-2.62,8.25h2.2v9.11c0,.3.14.45.42.45h1.15v2.41h-2.51c-.84,0-1.26-.45-1.26-1.36v-10.6Zm14.77-4.69v2.49h-3.85v14.45h4.5v2.51h-12.25v-2.51h4.9v-14.45h-4.29v-2.49h4.29v-4.22h2.85v4.22h3.85Z" style="fill:#231f20;"/><path d="m516.08,117.38h22.02v22.1c0,1-.67,1.49-2.02,1.49h-20v-23.59Zm18.67,21.6c.47,0,.71-.18.71-.55v-19.06h-16.76v19.61h16.05Zm-.31-18.46v1.7h-6v1.05h5.16v5.55c0,.77-.38,1.15-1.15,1.15h-4.01v1.15h3.14c.35,0,.6-.31.76-.94h2.51c-.07.96-.31,1.64-.71,2.04-.33.37-.83.55-1.49.55h-.42v.94h2.2v1.7h-2.2v1.75c0,.63-.5.94-1.49.94h-3.64v-1.65h2.28c.21,0,.31-.11.31-.34v-.71h-9.71v-1.7h9.71v-.94h-10.05v-1.65h6.39v-1.15h-5.34v-6.7h5.34v-1.05h-6.28v-1.7h6.28v-.71h2.41v.71h6Zm-12.49,15.32h2.64l.42.79c.09.17.26.26.52.26h1.05v1.23h-2.43c-.42,0-.78-.18-1.07-.55l-1.13-1.73Zm1.15-9.98h2.93v-1.15h-2.93v1.15Zm2.93,2.62v-1.15h-2.93v1.15h2.93Zm2.41-3.77v1.15h2.75v-1.15h-2.75Zm2.51,3.77c.16,0,.24-.18.24-.55v-.6h-2.75v1.15h2.51Z" style="fill:#231f20;"/><path d="m551.3,117.72v2.2h-1.26v21.26h-2.2v-2.12l-6.21.42v-2.2l1.15-.08v-17.28h-.84v-2.2h9.35Zm-6.31,6.7h2.85v-4.5h-2.85v4.5Zm0,6.36h2.85v-4.27h-2.85v4.27Zm0,6.26l2.85-.18v-3.98h-2.85v4.16Zm8.82-19.98h2.49l-3.04,5.05h2.54c.14,0,.21-.03.21-.1l-.55-1.99h2.09l.47,1.7s.04.17.08.39v1.05c0,.7-.42,1.05-1.26,1.05h-1.6l-2.09,3.67h2.64c.14,0,.21-.03.21-.1l-.65-2.2h2.09l.55,1.86c.04.05.07.2.1.44v1.05c0,.58-.25.91-.76,1v8.95c0,.56-.18,1.04-.55,1.44-.31.35-.76.52-1.34.52h-4.4v-2.07h3.59c.26,0,.39-.31.39-.94v-1.81h-2.7c-.77,0-1.15-.38-1.15-1.15v-3.85h1.96v2.7c0,.28.11.42.34.42h1.54v-4.16h-4.4v-2.2l2.07-3.56h-1.96v-2.44l3.06-4.71Zm7.86,0h2.49l-3.04,5.05h2.43c.14,0,.21-.03.21-.1l-.66-1.99h2.09l.55,1.7s.07.17.1.39v1.05c0,.7-.42,1.05-1.26,1.05h-1.47l-1.88,3.56h2.51c.14,0,.21-.03.21-.1l-.52-2.09h2.07l.47,1.78c.02.05.04.19.08.42v1.05c0,.7-.38,1.05-1.15,1.05h-2.96v4.27h1.7c.21,0,.31-.1.31-.31v-2.8h1.99v3.95c0,.77-.38,1.15-1.15,1.15h-2.85v4.95h-2.41v-11.21h-.84v-2.75l1.81-2.91h-1.91v-2.64l3.06-4.5Z" style="fill:#231f20;"/><path d="m572.56,125.03v12.46c0,1.13-.29,1.96-.86,2.49-.58.58-1.59.86-3.04.86v-2.41c.77-.23,1.15-.58,1.15-1.05v-19.77h22.31v5.45c0,1.31-.66,1.96-1.99,1.96h-17.57Zm0-4.9v2.49h16.42c.37,0,.55-.17.55-.5v-1.99h-16.97Zm18.96,7.2v2.2h-3.59v1.89h4.08v2.3h-14.14v4.4c0,.28.18.42.55.42h2.8v2.2h-4.5c-1.05,0-1.57-.42-1.57-1.26v-5.76h-1.54v-2.3h3.25v-1.89h-2.93v-2.2h2.93v-1.47h2.8v1.47h5.37v-1.47h2.91v1.47h3.59Zm-11.86,4.08h5.37v-1.89h-5.37v1.89Zm8.82,3.06h2.93c-.11,1.12-.38,1.91-.81,2.38-.44.42-1.05.63-1.83.63h-3.85l.29.63c.16.37.41.55.76.55h5.87v2.17h-7.36c-.94,0-1.6-.52-1.96-1.57l-2.3-4.69h3.22l.6,1.15h3.59c.4,0,.69-.42.86-1.26Z" style="fill:#231f20;"/><polygon points="115.9 39.47 115.9 16.09 34.69 85.91 115.9 155.74 115.9 132.36 61.88 85.91 115.9 39.47" style="fill:#231f20; stroke:#231f20; stroke-miterlimit:10; stroke-width:7.48px;"/><polyline points="115.9 132.36 138.78 152.03 138.78 19.8 115.9 39.47" style="fill:none; stroke:#000; stroke-miterlimit:10; stroke-width:7.48px;"/><rect x="163.45" y="16.56" width="103.06" height="138.71" style="fill:none; stroke:#000; stroke-miterlimit:10; stroke-width:7.48px;"/><rect x="186.55" y="51.24" width="104.25" height="69.35" style="fill:#231f20; stroke:#000; stroke-miterlimit:10; stroke-width:8.54px;"/><line x1="208.14" y1="85.91" x2="264.45" y2="85.91" style="fill:#fff; stroke:#fff; stroke-miterlimit:10; stroke-width:7.48px;"/><polygon points="8.28 85.91 92.64 158.45 92.64 13.38 8.28 85.91" style="fill:none; stroke:#000; stroke-miterlimit:10; stroke-width:7.48px;"/></svg>