<?xml version="1.0" encoding="UTF-8"?><svg id="a" xmlns="http://www.w3.org/2000/svg" viewBox="0 0 614.08 171.83"><path d="m295.83,63.95c.04-7.34,2.08-13.02,6.1-17.04s9.57-6.03,16.64-6.03h4.28v5.8h-5.08c-4.88,0-8.62,1.61-11.24,4.84-2.62,3.23-3.97,7.37-4.05,12.42.09,5.05,1.44,9.19,4.05,12.42,2.61,3.23,6.36,4.84,11.24,4.84h5.08v5.8h-4.28c-7.08,0-12.62-2.01-16.64-6.03s-6.05-9.7-6.1-17.04Z" style="fill:#231f20;"/><path d="m356.6,81.21v5.8h-9.62c-1.8,0-3.22-.03-4.25-.1-1.03-.07-2.32-.33-3.86-.79s-2.83-1.15-3.89-2.08c-1.63-1.49-2.68-3.28-3.16-5.37-.48-2.09-.73-4.54-.73-7.35v-30.45h6.2v30.32c0,2.55.29,4.55.86,6,1.14,2.68,3.54,4.02,7.18,4.02h11.27Z" style="fill:#231f20;"/><path d="m388.82,40.88h6.2v31.64c0,5.23-1.35,9.06-4.05,11.5-2.7,2.44-6.78,3.66-12.23,3.66s-9.51-1.22-12.19-3.66c-2.68-2.44-4.02-6.27-4.02-11.5v-31.64h6.2v32.49c0,2.99.91,5.15,2.74,6.49,1.82,1.34,4.23,2.01,7.22,2.01s5.54-.67,7.38-2.01c1.84-1.34,2.77-3.5,2.77-6.49v-32.49Z" style="fill:#231f20;"/><path d="m409.72,87.01h-6.13v-31.44c0-4.53,1.46-8.22,4.38-11.07,2.92-2.86,6.54-4.28,10.84-4.28,4.75,0,8.31,1.2,10.71,3.59,2.39,2.4,3.59,5.33,3.59,8.8,0,4.44-2.07,7.62-6.2,9.56v.26c5.67,1.63,8.5,5.56,8.5,11.8,0,8.52-5.03,12.79-15.09,12.79h-8.24v-5.8h8.17c3.03,0,5.25-.61,6.66-1.85,1.41-1.23,2.11-3.21,2.11-5.93,0-2.37-.76-4.2-2.27-5.47-1.52-1.27-3.57-1.91-6.16-1.91h-6.53v-5.47h4.22c2.37,0,4.4-.65,6.1-1.94,1.69-1.3,2.54-3.04,2.54-5.24s-.65-3.87-1.94-5.27c-1.3-1.41-3.39-2.11-6.29-2.11-2.64,0-4.79.82-6.46,2.47-1.67,1.65-2.5,4.05-2.5,7.22v31.31Z" style="fill:#231f20;"/><path d="m484.26,87.01h-26.23v-35.13c0-3.25,1.03-5.87,3.1-7.84,1.41-1.32,2.99-2.17,4.75-2.57,1.76-.4,3.91-.59,6.46-.59h11.93v5.8h-12.79c-4.83,0-7.25,2.02-7.25,6.06v7.51h15.23v5.8h-15.23v15.16h20.04v5.8Z" style="fill:#231f20;"/><path d="m490.19,41.67v-.79h6.2v.79c0,8.79,3.1,14.96,9.29,18.52,3.47-1.93,5.9-4.44,7.28-7.51,1.38-3.08,2.08-6.74,2.08-11.01v-.79h6.33v1.38c0,9.14-3.38,16.02-10.15,20.63,6.77,4.7,10.15,11.58,10.15,20.63v3.49h-6.33v-2.9c0-4.26-.69-7.93-2.08-11.01-1.38-3.07-3.81-5.58-7.28-7.51-6.2,3.56-9.29,9.73-9.29,18.52v2.9h-6.2v-2.9c0-9.4,3.38-16.48,10.15-21.22-6.77-4.66-10.15-11.73-10.15-21.22Z" style="fill:#231f20;"/><path d="m534.81,87.01h-6.2v-30.32c0-5.18,1.39-9.23,4.19-12.13,2.79-2.9,6.49-4.35,11.11-4.35,4.92,0,8.73,1.41,11.44,4.22,2.7,2.81,4.05,6.39,4.05,10.74,0,2.72-.49,5.1-1.48,7.12-.99,2.02-2.32,3.58-3.99,4.68-1.67,1.1-3.45,1.91-5.34,2.44-1.89.53-3.87.79-5.93.79h-4.94v-5.8h5.67c2.94,0,5.26-.89,6.95-2.67,1.69-1.78,2.54-4.01,2.54-6.69s-.78-4.8-2.34-6.49c-1.56-1.69-3.79-2.54-6.69-2.54s-5.02.96-6.62,2.87c-1.6,1.91-2.41,4.43-2.41,7.55v30.58Z" style="fill:#231f20;"/><path d="m565.66,64.14c.04-3.65.59-6.94,1.65-9.89,1.05-2.94,2.53-5.46,4.42-7.55,1.89-2.09,4.15-3.69,6.79-4.81,2.64-1.12,5.58-1.68,8.83-1.68s6.14.56,8.8,1.68c2.66,1.12,4.93,2.73,6.82,4.81,1.89,2.09,3.36,4.6,4.42,7.55,1.05,2.94,1.6,6.24,1.65,9.89-.04,3.65-.58,6.92-1.61,9.82-1.03,2.9-2.49,5.36-4.38,7.38-1.89,2.02-4.16,3.58-6.82,4.68-2.66,1.1-5.61,1.65-8.87,1.65s-6.21-.55-8.86-1.65c-2.66-1.1-4.93-2.66-6.82-4.68-1.89-2.02-3.35-4.48-4.38-7.38-1.03-2.9-1.57-6.17-1.61-9.82Zm36.71,0c-.04-2.46-.41-4.79-1.09-6.99-.68-2.2-1.67-4.12-2.97-5.77-1.3-1.65-2.87-2.95-4.71-3.92-1.85-.97-3.93-1.45-6.26-1.45s-4.42.48-6.26,1.45c-1.85.97-3.42,2.27-4.71,3.92-1.3,1.65-2.29,3.57-2.97,5.77-.68,2.2-1.04,4.53-1.09,6.99.04,2.5.41,4.83,1.09,6.99.68,2.15,1.67,4.02,2.97,5.6,1.3,1.58,2.87,2.83,4.71,3.76s3.93,1.38,6.26,1.38,4.42-.46,6.26-1.38c1.85-.92,3.42-2.18,4.71-3.76,1.29-1.58,2.28-3.45,2.97-5.6.68-2.15,1.04-4.48,1.09-6.99Z" style="fill:#231f20;"/><path d="m305.69,130.91h-3.72v-27.68h9.77c3.27,0,5.71.73,7.32,2.19,1.61,1.46,2.41,3.76,2.41,6.9v18.59h-3.72v-19.1c0-1.79-.55-3.09-1.64-3.9-1.09-.8-2.54-1.21-4.33-1.21h-6.09v24.2Z" style="fill:#231f20;"/><path d="m340.77,103.23v3.48h-7c-2.66,0-3.99,1.08-3.99,3.24,0,1.16.59,2.14,1.76,2.95,1.17.8,2.76,1.58,4.77,2.31.9.34,1.66.69,2.29,1.05s1.27.82,1.9,1.4c.63.58,1.11,1.32,1.42,2.23s.47,1.96.47,3.14c0,1.32-.28,2.5-.83,3.54s-1.26,1.86-2.13,2.45-1.76,1.04-2.67,1.34c-.91.3-1.8.47-2.67.49-.37.03-.9.04-1.58.04h-6.17v-3.48h6.05c1.79,0,3.26-.38,4.39-1.13,1.13-.75,1.7-1.85,1.7-3.3,0-.71-.16-1.34-.47-1.88-.32-.54-.77-1.01-1.36-1.4-.59-.4-1.2-.74-1.82-1.03-.62-.29-1.36-.59-2.23-.91-.24-.08-.42-.14-.55-.2-4.14-1.58-6.21-4.17-6.21-7.75,0-2.21.71-3.87,2.14-4.96,1.42-1.09,3.28-1.64,5.58-1.64h7.24Z" style="fill:#231f20;"/><path d="m363.67,103.23v1.98c0,3.22-.6,6.16-1.8,8.84-1.2,2.68-2.95,4.71-5.24,6.11v10.76h-3.72v-10.68c-2.29-1.37-4.06-3.37-5.3-5.99-1.24-2.62-1.86-5.52-1.86-8.68v-2.33h3.8v1.98c0,2.72.39,5.04,1.17,6.98.78,1.94,2.13,3.53,4.05,4.77,3.45-2.29,5.18-6.21,5.18-11.75v-1.98h3.72Z" style="fill:#231f20;"/><path d="m382.18,103.23v3.48h-7c-2.66,0-3.99,1.08-3.99,3.24,0,1.16.59,2.14,1.76,2.95,1.17.8,2.76,1.58,4.77,2.31.9.34,1.66.69,2.29,1.05s1.27.82,1.9,1.4c.63.58,1.11,1.32,1.42,2.23s.47,1.96.47,3.14c0,1.32-.28,2.5-.83,3.54s-1.26,1.86-2.13,2.45-1.76,1.04-2.67,1.34c-.91.3-1.8.47-2.67.49-.37.03-.9.04-1.58.04h-6.17v-3.48h6.05c1.79,0,3.26-.38,4.39-1.13,1.13-.75,1.7-1.85,1.7-3.3,0-.71-.16-1.34-.47-1.88-.32-.54-.77-1.01-1.36-1.4-.59-.4-1.2-.74-1.82-1.03-.62-.29-1.36-.59-2.23-.91-.24-.08-.42-.14-.55-.2-4.14-1.58-6.21-4.17-6.21-7.75,0-2.21.71-3.87,2.14-4.96,1.42-1.09,3.28-1.64,5.58-1.64h7.24Z" style="fill:#231f20;"/><path d="m403.73,103.23h3.72v18.98c0,3.14-.81,5.44-2.43,6.9s-4.07,2.19-7.34,2.19-5.71-.73-7.32-2.19-2.41-3.76-2.41-6.9v-18.98h3.72v19.5c0,1.79.55,3.09,1.64,3.9s2.54,1.21,4.33,1.21,3.32-.4,4.43-1.21,1.66-2.1,1.66-3.9v-19.5Z" style="fill:#231f20;"/><path d="m437.9,110.7c0,1.77-.32,3.22-.95,4.37-.63,1.15-1.68,2.31-3.14,3.5-1.46,1.19-2.49,2.02-3.08,2.49-.59.47-1.33,1.09-2.2,1.84-.87.75-1.65,1.52-2.33,2.31-.69.79-1.12,1.45-1.3,1.98h12.77v3.72h-16.77v-1.74c0-.55.06-1.11.18-1.66.12-.55.38-1.26.79-2.12.41-.86,1.06-1.86,1.96-3.01.9-1.15,3.22-3.14,6.96-5.99,2.08-1.61,3.12-3.57,3.12-5.89,0-1.13-.41-2.09-1.23-2.87-.82-.78-1.99-1.17-3.52-1.17-2.45,0-4.36,1.42-5.73,4.27l-2.93-2.45c1.98-3.61,4.82-5.42,8.54-5.42,2.77,0,4.94.69,6.5,2.06,1.57,1.37,2.35,3.3,2.35,5.77Z" style="fill:#231f20;"/><path d="m442.6,121.14c-.05-.61-.09-1.27-.12-1.98-.03-.71-.04-1.45-.04-2.21,0-1.74.11-3.46.34-5.16.22-1.7.67-3.21,1.34-4.53.67-1.32,1.63-2.39,2.89-3.2,1.25-.82,2.91-1.23,4.96-1.23s3.84.42,5.1,1.27c1.27.84,2.22,1.94,2.87,3.28.65,1.34,1.07,2.86,1.27,4.55.2,1.69.3,3.36.3,5.02s-.11,3.47-.32,5.18c-.21,1.71-.65,3.25-1.33,4.61-.67,1.36-1.63,2.46-2.89,3.3-1.25.84-2.92,1.27-5,1.27-1.74,0-3.18-.28-4.31-.85s-2.05-1.33-2.75-2.27c-.7-.95-1.22-2.04-1.56-3.26-.34-1.23-.59-2.48-.75-3.78Zm4.83,4.47c.84,1.48,2.36,2.21,4.55,2.21,1.11,0,2.02-.16,2.75-.47.72-.32,1.31-.88,1.76-1.68s.76-1.91.95-3.32c.18-1.41.28-3.21.28-5.4s-.09-3.95-.28-5.36c-.18-1.41-.5-2.52-.95-3.34-.45-.82-1.04-1.38-1.76-1.7-.73-.32-1.64-.47-2.75-.47s-2.02.15-2.75.45c-.73.3-1.31.86-1.76,1.68-.45.82-.76,1.92-.95,3.32s-.28,3.2-.28,5.42c0,4.32.4,7.21,1.19,8.66Z" style="fill:#231f20;"/><path d="m482.35,110.7c0,1.77-.32,3.22-.95,4.37-.63,1.15-1.68,2.31-3.14,3.5-1.46,1.19-2.49,2.02-3.08,2.49-.59.47-1.33,1.09-2.2,1.84-.87.75-1.65,1.52-2.33,2.31-.69.79-1.12,1.45-1.3,1.98h12.77v3.72h-16.77v-1.74c0-.55.06-1.11.18-1.66.12-.55.38-1.26.79-2.12.41-.86,1.06-1.86,1.96-3.01.9-1.15,3.22-3.14,6.96-5.99,2.08-1.61,3.12-3.57,3.12-5.89,0-1.13-.41-2.09-1.23-2.87-.82-.78-1.99-1.17-3.52-1.17-2.45,0-4.36,1.42-5.73,4.27l-2.93-2.45c1.98-3.61,4.82-5.42,8.54-5.42,2.77,0,4.94.69,6.5,2.06,1.57,1.37,2.35,3.3,2.35,5.77Z" style="fill:#231f20;"/><path d="m504.25,122.21c0,2.85-.85,5.08-2.55,6.68-1.7,1.61-3.96,2.41-6.78,2.41-2.45,0-4.45-.46-5.99-1.38-1.54-.92-2.53-2.27-2.95-4.03l2.93-2.89c.29,1.5.94,2.68,1.96,3.54,1.01.86,2.33,1.29,3.93,1.29,3.61,0,5.42-1.87,5.42-5.62,0-3.35-2.04-5.02-6.13-5.02h-2.21v-3.72c1.61-.5,3.03-1.32,4.27-2.47,1.24-1.15,2.14-2.5,2.69-4.05h-11.55v-3.72h15.26v.83c0,4.43-1.7,7.69-5.1,9.77,2.21.5,3.9,1.48,5.06,2.93,1.16,1.45,1.74,3.27,1.74,5.46Z" style="fill:#231f20;"/><polygon points="105.97 43.62 105.97 22.32 32.01 85.91 105.97 149.51 105.97 128.21 56.78 85.91 105.97 43.62" style="fill:#231f20; stroke:#231f20; stroke-miterlimit:10; stroke-width:6.81px;"/><polyline points="105.97 128.21 126.8 146.12 126.8 25.71 105.97 43.62" style="fill:none; stroke:#000; stroke-miterlimit:10; stroke-width:6.81px;"/><rect x="149.28" y="22.75" width="93.86" height="126.32" style="fill:none; stroke:#000; stroke-miterlimit:10; stroke-width:6.81px;"/><rect x="170.31" y="54.33" width="94.94" height="63.16" style="fill:#231f20; stroke:#000; stroke-miterlimit:10; stroke-width:7.77px;"/><line x1="189.98" y1="85.91" x2="241.25" y2="85.91" style="fill:#fff; stroke:#fff; stroke-miterlimit:10; stroke-width:6.81px;"/><polygon points="7.96 85.91 84.79 151.97 84.79 19.86 7.96 85.91" style="fill:none; stroke:#000; stroke-miterlimit:10; stroke-width:6.81px;"/></svg>