<?xml version="1.0" encoding="UTF-8"?><svg id="a" xmlns="http://www.w3.org/2000/svg" viewBox="0 0 600 600"><path d="m89.95,340.75c.06-9.84,2.78-17.46,8.18-22.85,5.39-5.39,12.83-8.09,22.32-8.09h5.75v7.78h-6.81c-6.54,0-11.57,2.17-15.07,6.5-3.51,4.33-5.32,9.89-5.44,16.67.12,6.78,1.93,12.33,5.44,16.67,3.51,4.33,8.53,6.5,15.07,6.5h6.81v7.78h-5.75c-9.49,0-16.93-2.7-22.32-8.09-5.39-5.39-8.12-13.01-8.18-22.85Z" style="fill:#231f20;"/><path d="m171.46,363.92v7.78h-12.91c-2.42,0-4.32-.04-5.7-.13-1.39-.09-3.11-.44-5.17-1.06-2.06-.62-3.8-1.55-5.22-2.79-2.18-2-3.6-4.41-4.24-7.21-.65-2.8-.97-6.08-.97-9.86v-40.84h8.31v40.67c0,3.42.38,6.1,1.15,8.04,1.53,3.6,4.74,5.39,9.64,5.39h15.12Z" style="fill:#231f20;"/><path d="m214.69,309.81h8.31v42.44c0,7.01-1.81,12.16-5.44,15.43-3.62,3.27-9.09,4.91-16.4,4.91s-12.76-1.64-16.36-4.91c-3.6-3.27-5.39-8.41-5.39-15.43v-42.44h8.31v43.58c0,4.01,1.22,6.91,3.67,8.71,2.44,1.8,5.67,2.7,9.68,2.7s7.43-.9,9.9-2.7c2.48-1.8,3.71-4.7,3.71-8.71v-43.58Z" style="fill:#231f20;"/><path d="m242.71,371.7h-8.22v-42.17c0-6.07,1.96-11.02,5.88-14.85,3.92-3.83,8.77-5.75,14.54-5.75,6.37,0,11.15,1.61,14.37,4.82,3.21,3.21,4.82,7.15,4.82,11.8,0,5.95-2.77,10.23-8.31,12.82v.35c7.6,2.18,11.41,7.46,11.41,15.83,0,11.44-6.75,17.15-20.25,17.15h-11.05v-7.78h10.96c4.07,0,7.04-.82,8.93-2.48,1.89-1.65,2.83-4.3,2.83-7.96,0-3.18-1.02-5.63-3.05-7.34-2.03-1.71-4.79-2.56-8.27-2.56h-8.75v-7.34h5.66c3.18,0,5.91-.87,8.18-2.61,2.27-1.74,3.4-4.08,3.4-7.03s-.87-5.19-2.61-7.07c-1.74-1.89-4.55-2.83-8.44-2.83-3.54,0-6.42,1.11-8.66,3.32-2.24,2.21-3.36,5.44-3.36,9.68v41.99Z" style="fill:#231f20;"/><path d="m342.7,371.7h-35.19v-47.12c0-4.36,1.38-7.87,4.16-10.52,1.89-1.77,4.01-2.92,6.37-3.45,2.36-.53,5.25-.8,8.66-.8h16v7.78h-17.15c-6.48,0-9.73,2.71-9.73,8.13v10.08h20.42v7.78h-20.42v20.33h26.88v7.78Z" style="fill:#231f20;"/><path d="m350.66,310.87v-1.06h8.31v1.06c0,11.79,4.16,20.07,12.46,24.84,4.66-2.59,7.91-5.95,9.77-10.08,1.86-4.12,2.79-9.05,2.79-14.76v-1.06h8.49v1.86c0,12.26-4.54,21.48-13.62,27.67,9.08,6.31,13.62,15.53,13.62,27.67v4.69h-8.49v-3.89c0-5.72-.93-10.64-2.79-14.76-1.86-4.12-5.11-7.48-9.77-10.08-8.31,4.77-12.46,13.05-12.46,24.84v3.89h-8.31v-3.89c0-12.61,4.54-22.1,13.62-28.47-9.08-6.25-13.62-15.74-13.62-28.47Z" style="fill:#231f20;"/><path d="m410.51,371.7h-8.31v-40.67c0-6.95,1.87-12.38,5.61-16.27,3.74-3.89,8.71-5.83,14.9-5.83,6.6,0,11.71,1.89,15.34,5.66,3.62,3.77,5.44,8.58,5.44,14.41,0,3.66-.66,6.84-1.99,9.55-1.33,2.71-3.11,4.8-5.35,6.28-2.24,1.47-4.63,2.56-7.16,3.27-2.54.71-5.19,1.06-7.96,1.06h-6.63v-7.78h7.6c3.95,0,7.06-1.19,9.33-3.58,2.27-2.39,3.4-5.38,3.4-8.97s-1.05-6.44-3.14-8.71c-2.09-2.27-5.08-3.4-8.97-3.4s-6.73,1.28-8.88,3.85c-2.15,2.56-3.23,5.94-3.23,10.12v41.02Z" style="fill:#231f20;"/><path d="m451.88,341.02c.06-4.89.8-9.31,2.21-13.26,1.42-3.95,3.39-7.32,5.92-10.12,2.53-2.8,5.57-4.95,9.11-6.45s7.48-2.25,11.85-2.25,8.24.75,11.8,2.25c3.57,1.5,6.62,3.66,9.15,6.45,2.53,2.8,4.51,6.17,5.92,10.12,1.41,3.95,2.15,8.37,2.21,13.26-.06,4.89-.78,9.28-2.17,13.17-1.39,3.89-3.35,7.19-5.88,9.9-2.54,2.71-5.58,4.8-9.15,6.28-3.57,1.47-7.53,2.21-11.89,2.21s-8.33-.74-11.89-2.21c-3.57-1.47-6.62-3.57-9.15-6.28-2.54-2.71-4.5-6.01-5.88-9.9-1.39-3.89-2.11-8.28-2.17-13.17Zm49.24,0c-.06-3.3-.55-6.42-1.46-9.37-.91-2.95-2.24-5.53-3.98-7.74-1.74-2.21-3.85-3.96-6.32-5.26-2.48-1.3-5.28-1.95-8.4-1.95s-5.92.65-8.4,1.95c-2.48,1.3-4.58,3.05-6.32,5.26-1.74,2.21-3.07,4.79-3.98,7.74-.91,2.95-1.4,6.07-1.46,9.37.06,3.36.54,6.48,1.46,9.37.91,2.89,2.24,5.39,3.98,7.51,1.74,2.12,3.85,3.8,6.32,5.04,2.48,1.24,5.27,1.86,8.4,1.86s5.92-.62,8.4-1.86c2.48-1.24,4.58-2.92,6.32-5.04,1.74-2.12,3.06-4.63,3.98-7.51.91-2.89,1.4-6.01,1.46-9.37Z" style="fill:#231f20;"/><path d="m182.52,421.95h-4.51v-33.6h11.86c3.97,0,6.93.89,8.88,2.66,1.95,1.78,2.93,4.57,2.93,8.38v22.56h-4.51v-23.18c0-2.18-.66-3.75-1.99-4.73-1.33-.98-3.08-1.46-5.26-1.46h-7.39v29.38Z" style="fill:#231f20;"/><path d="m225.1,388.35v4.22h-8.5c-3.23,0-4.85,1.31-4.85,3.94,0,1.41.71,2.6,2.14,3.58,1.42.98,3.35,1.91,5.78,2.81,1.09.42,2.02.84,2.78,1.27.77.43,1.54,1,2.3,1.7.77.7,1.34,1.61,1.73,2.71.38,1.1.58,2.38.58,3.82,0,1.6-.34,3.03-1.01,4.3-.67,1.26-1.54,2.26-2.59,2.98-1.06.72-2.14,1.26-3.24,1.63-1.1.37-2.18.57-3.24.6-.45.03-1.09.05-1.92.05h-7.49v-4.22h7.34c2.18,0,3.95-.46,5.33-1.37,1.38-.91,2.06-2.25,2.06-4.01,0-.86-.19-1.62-.58-2.28-.38-.66-.94-1.22-1.66-1.7-.72-.48-1.46-.9-2.21-1.25-.75-.35-1.66-.72-2.71-1.1-.29-.1-.51-.18-.67-.24-5.02-1.92-7.54-5.06-7.54-9.41,0-2.69.86-4.7,2.59-6.02,1.73-1.33,3.98-1.99,6.77-1.99h8.78Z" style="fill:#231f20;"/><path d="m252.89,388.35v2.4c0,3.9-.73,7.48-2.18,10.73s-3.58,5.72-6.36,7.42v13.06h-4.51v-12.96c-2.78-1.66-4.93-4.09-6.43-7.27-1.5-3.18-2.26-6.7-2.26-10.54v-2.83h4.61v2.4c0,3.3.47,6.12,1.42,8.47.94,2.35,2.58,4.28,4.92,5.78,4.19-2.78,6.29-7.54,6.29-14.26v-2.4h4.51Z" style="fill:#231f20;"/><path d="m275.35,388.35v4.22h-8.5c-3.23,0-4.85,1.31-4.85,3.94,0,1.41.71,2.6,2.14,3.58,1.42.98,3.35,1.91,5.78,2.81,1.09.42,2.02.84,2.78,1.27.77.43,1.54,1,2.3,1.7.77.7,1.34,1.61,1.73,2.71.38,1.1.58,2.38.58,3.82,0,1.6-.34,3.03-1.01,4.3-.67,1.26-1.54,2.26-2.59,2.98-1.06.72-2.14,1.26-3.24,1.63-1.1.37-2.18.57-3.24.6-.45.03-1.09.05-1.92.05h-7.49v-4.22h7.34c2.18,0,3.95-.46,5.33-1.37,1.38-.91,2.06-2.25,2.06-4.01,0-.86-.19-1.62-.58-2.28-.38-.66-.94-1.22-1.66-1.7s-1.46-.9-2.21-1.25c-.75-.35-1.66-.72-2.71-1.1-.29-.1-.51-.18-.67-.24-5.02-1.92-7.54-5.06-7.54-9.41,0-2.69.86-4.7,2.59-6.02,1.73-1.33,3.98-1.99,6.77-1.99h8.78Z" style="fill:#231f20;"/><path d="m301.51,388.35h4.51v23.04c0,3.81-.98,6.6-2.95,8.38-1.97,1.78-4.94,2.66-8.9,2.66s-6.93-.89-8.88-2.66c-1.95-1.78-2.93-4.57-2.93-8.38v-23.04h4.51v23.66c0,2.18.66,3.75,1.99,4.73,1.33.98,3.08,1.46,5.26,1.46s4.03-.49,5.38-1.46c1.34-.98,2.02-2.55,2.02-4.73v-23.66Z" style="fill:#231f20;"/><path d="m342.98,397.42c0,2.14-.38,3.91-1.15,5.3-.77,1.39-2.04,2.81-3.82,4.25-1.78,1.44-3.02,2.45-3.74,3.02-.72.58-1.61,1.32-2.66,2.23-1.06.91-2,1.85-2.83,2.81-.83.96-1.36,1.76-1.58,2.4h15.5v4.51h-20.35v-2.11c0-.67.07-1.34.22-2.02.14-.67.46-1.53.96-2.57.5-1.04,1.29-2.26,2.38-3.65,1.09-1.39,3.9-3.82,8.45-7.27,2.53-1.95,3.79-4.34,3.79-7.15,0-1.38-.5-2.54-1.49-3.48-.99-.94-2.42-1.42-4.27-1.42-2.98,0-5.3,1.73-6.96,5.18l-3.55-2.98c2.4-4.38,5.86-6.58,10.37-6.58,3.36,0,5.99.83,7.9,2.5,1.9,1.66,2.86,4,2.86,7.01Z" style="fill:#231f20;"/><path d="m348.7,410.1c-.06-.74-.11-1.54-.14-2.4-.03-.86-.05-1.76-.05-2.69,0-2.11.14-4.2.41-6.26.27-2.06.82-3.9,1.63-5.5.82-1.6,1.98-2.9,3.5-3.89s3.53-1.49,6.02-1.49,4.66.51,6.19,1.54c1.54,1.02,2.7,2.35,3.48,3.98.78,1.63,1.3,3.47,1.54,5.52s.36,4.08.36,6.1-.13,4.21-.38,6.29c-.26,2.08-.79,3.94-1.61,5.59-.82,1.65-1.98,2.98-3.5,4.01-1.52,1.02-3.54,1.54-6.07,1.54-2.11,0-3.86-.34-5.23-1.03-1.38-.69-2.49-1.61-3.34-2.76-.85-1.15-1.48-2.47-1.9-3.96-.42-1.49-.72-3.02-.91-4.58Zm5.86,5.42c1.02,1.79,2.86,2.69,5.52,2.69,1.34,0,2.46-.19,3.34-.58.88-.38,1.59-1.06,2.14-2.04.54-.98.93-2.32,1.15-4.03.22-1.71.34-3.9.34-6.55s-.11-4.79-.34-6.5c-.22-1.71-.61-3.06-1.15-4.06-.54-.99-1.26-1.68-2.14-2.06-.88-.38-1.99-.58-3.34-.58s-2.46.18-3.34.55c-.88.37-1.59,1.05-2.14,2.04-.54.99-.93,2.34-1.15,4.03-.22,1.7-.34,3.89-.34,6.58,0,5.25.48,8.75,1.44,10.51Z" style="fill:#231f20;"/><path d="m396.94,397.42c0,2.14-.38,3.91-1.15,5.3-.77,1.39-2.04,2.81-3.82,4.25-1.78,1.44-3.02,2.45-3.74,3.02-.72.58-1.61,1.32-2.66,2.23-1.06.91-2,1.85-2.83,2.81-.83.96-1.36,1.76-1.58,2.4h15.5v4.51h-20.35v-2.11c0-.67.07-1.34.22-2.02.14-.67.46-1.53.96-2.57.5-1.04,1.29-2.26,2.38-3.65,1.09-1.39,3.9-3.82,8.45-7.27,2.53-1.95,3.79-4.34,3.79-7.15,0-1.38-.5-2.54-1.49-3.48-.99-.94-2.42-1.42-4.27-1.42-2.98,0-5.3,1.73-6.96,5.18l-3.55-2.98c2.4-4.38,5.86-6.58,10.37-6.58,3.36,0,5.99.83,7.9,2.5,1.9,1.66,2.86,4,2.86,7.01Z" style="fill:#231f20;"/><path d="m423.53,411.39c0,3.46-1.03,6.16-3.1,8.11-2.06,1.95-4.81,2.93-8.23,2.93-2.98,0-5.4-.56-7.27-1.68-1.87-1.12-3.06-2.75-3.58-4.9l3.55-3.5c.35,1.82,1.14,3.26,2.38,4.3,1.23,1.04,2.82,1.56,4.78,1.56,4.38,0,6.58-2.27,6.58-6.82,0-4.06-2.48-6.1-7.44-6.1h-2.69v-4.51c1.95-.61,3.68-1.61,5.18-3,1.5-1.39,2.59-3.03,3.26-4.92h-14.02v-4.51h18.53v1.01c0,5.38-2.06,9.33-6.19,11.86,2.69.61,4.74,1.79,6.14,3.55s2.11,3.97,2.11,6.62Z" style="fill:#231f20;"/><path d="m127.54,441.45v31.34c0,2.49-1.38,3.73-4.14,3.73h-30.35v-35.07h34.49Zm-30.39,16.53v14.81h25.47c.52,0,.78-.23.78-.7v-26.91h-26.25v12.8Zm24.98-9.19v3.45h-6.69l1.72,9.02h.33c.33,0,.49-.21.49-.62v-6.28h3.28v7.05c0,2.19-1.04,3.28-3.12,3.28h-.33l.33,1.8c.11.79.4,1.19.86,1.19h3.12v3.45h-5.25c-1.45,0-2.28-1-2.5-2.99l-.57-3.45h-2.71v-3.45h2.09l-1.6-9.02h-13.12v-3.45h12.51l-.49-2.75h3.73l.53,2.75h2.21l-.45-2.42h3.65l.41,2.42h1.56Zm-10.5,18.42v3.45h-13.17v-3.45h13.17Zm-12.14-12.47h10.66v7.38c0,1.61-.55,2.42-1.64,2.42h-9.02v-9.8Zm6.89,6.52c.22,0,.33-.16.33-.49v-2.79h-3.77v3.28h3.45Z" style="fill:#231f20;"/><path d="m171.18,472.95v3.9h-37.45v-3.9h37.45Zm-21.16-32.85h5.25v3.61h15.22v3.98h-36.22v-3.98h15.75v-3.61Zm-12.3,9.56h5.04l3.12,15.22c.16.77.56,1.15,1.19,1.15h3.73v3.94h-6.23c-1.56,0-2.53-.75-2.91-2.26l-3.94-18.05Zm24.61-.16h5.25l-2.75,15.18c-.68,3.53-2.41,5.29-5.17,5.29h-5.41v-4.06h3.61c.77,0,1.39-.93,1.89-2.79l2.58-13.62Z" style="fill:#231f20;"/><path d="m176.92,446.05h14.89v-5.95h4.92v5.95h15.26v19.2c0,2.16-1.15,3.24-3.45,3.24h-11.81v9.56h-4.92v-9.56h-14.89v-22.44Zm14.89,17.88v-13.49h-10.29v13.49h10.29Zm14.31,0c.85,0,1.27-.4,1.27-1.19v-12.3h-10.66v13.49h9.39Z" style="fill:#231f20;"/><path d="m219.21,444.57h5.09v27.89h9.52v-32.53h5.09v32.53h8.37c.68,0,1.03-.29,1.03-.86v-27.03h5.09v29.16c0,1.97-1.15,2.95-3.45,2.95h-30.72v-32.12Z" style="fill:#231f20;"/><path d="m297.18,446.83v4.27h-15.34l8.45,19.81c.46,1.26,1.01,1.89,1.64,1.89h5.41v4.22h-8.53c-.88,0-1.6-.72-2.17-2.17l-8-19.73-7.55,19.07c-.82,1.89-1.76,2.83-2.83,2.83h-8.7v-4.22h5.58c.9,0,1.85-1.31,2.83-3.94l7.01-17.76h-15.26v-4.27h16.28v-6.73h5.04v6.73h16.12Z" style="fill:#231f20;"/><path d="m309.65,440.8h3.77v.16h4.59l2.71,2.17,3.2-2.17h5.25l-1.19.78h9.23v16.24h1.27v5.46h-1.64v1.8l-4.55,3.45h7.22v3.08h-7.55v3.77c0,1.2-.93,1.8-2.79,1.8h-22.52v-2.91h19.85c.46,0,.7-.23.7-.7v-1.97h-25.47v-3.08h25.84l3.4-2.5h-26.41v-2.75h-1.97v-5.46h1.48v-15.75h4.55c.41,0,.75-.48,1.03-1.44Zm-2.34,22.64h26.46v-2.34h-26.46v2.34Zm6.4-15.54l4.18-2.83-4.47-3.57v.98c0,2.02-1.11,3.04-3.32,3.04h-1.8v1.8h5.41v.57Zm-5.41,10.09h24.61v-2.58h-5.7v-2.83h5.7v-2.3h-4.92l-4.47,3.08,5,3.53h-5.25l-2.42-1.68-2.17,1.52h-5.25l4.84-3.36-4.55-3.2v.12h-5.41v2.13h5.41v2.99h-5.41v2.58Zm18.91-8.16v-.86h-4.47l-2.46-1.97-2.95,1.97h-3.61v.86h4.8l2.42,1.72,2.5-1.72h3.77Zm0-1.48v-1.19h5.7v-2.13h-5.7v-2.75l-4.06,2.79,4.06,3.28Z" style="fill:#231f20;"/><path d="m344.92,453.88h3.45v20.22c0,1.53-.66,2.3-1.97,2.3h-3.16v-3.94h1.19c.33,0,.49-.23.49-.7v-17.88Zm17.68-5.54v3.9h-7.67v25.96h-4.31v-25.96h-6.89v-3.9h18.87Zm-1.15-7.38v3.77h-16.69v-3.77h16.69Zm-4.1,12.92h3.45v14.27c0,.46.22.7.66.7h1.8v3.77h-3.94c-1.31,0-1.97-.71-1.97-2.13v-16.61Zm23.13-7.34v3.9h-6.03v22.64h7.05v3.94h-19.2v-3.94h7.67v-22.64h-6.73v-3.9h6.73v-6.6h4.47v6.6h6.03Z" style="fill:#231f20;"/><path d="m387.21,440.59h34.49v34.62c0,1.56-1.05,2.34-3.16,2.34h-31.34v-36.96Zm29.24,33.84c.74,0,1.11-.29,1.11-.86v-29.86h-26.25v30.72h25.14Zm-.49-28.92v2.67h-9.39v1.64h8.08v8.7c0,1.2-.6,1.8-1.8,1.8h-6.28v1.8h4.92c.55,0,.94-.49,1.19-1.48h3.94c-.11,1.5-.48,2.57-1.11,3.2-.52.57-1.3.86-2.34.86h-.66v1.48h3.45v2.67h-3.45v2.75c0,.98-.78,1.48-2.34,1.48h-5.7v-2.58h3.57c.33,0,.49-.18.49-.53v-1.11h-15.22v-2.67h15.22v-1.48h-15.75v-2.58h10.01v-1.8h-8.37v-10.5h8.37v-1.64h-9.84v-2.67h9.84v-1.11h3.77v1.11h9.39Zm-19.56,23.99h4.14l.66,1.23c.14.27.41.41.82.41h1.64v1.93h-3.81c-.66,0-1.22-.29-1.68-.86l-1.76-2.71Zm1.8-15.63h4.59v-1.8h-4.59v1.8Zm4.59,4.1v-1.8h-4.59v1.8h4.59Zm3.77-5.91v1.8h4.31v-1.8h-4.31Zm3.94,5.91c.25,0,.37-.29.37-.86v-.94h-4.31v1.8h3.94Z" style="fill:#231f20;"/><path d="m442.37,441.13v3.45h-1.97v33.3h-3.45v-3.32l-9.72.66v-3.45l1.8-.12v-27.07h-1.31v-3.45h14.64Zm-9.88,10.5h4.47v-7.05h-4.47v7.05Zm0,9.97h4.47v-6.69h-4.47v6.69Zm0,9.8l4.47-.29v-6.23h-4.47v6.52Zm13.82-31.29h3.9l-4.76,7.92h3.98c.22,0,.33-.05.33-.16l-.86-3.12h3.28l.74,2.67c.03.05.07.26.12.62v1.64c0,1.09-.66,1.64-1.97,1.64h-2.5l-3.28,5.74h4.14c.22,0,.33-.05.33-.16l-1.03-3.45h3.28l.86,2.91c.05.08.11.31.16.7v1.64c0,.9-.4,1.42-1.19,1.56v14.03c0,.88-.29,1.63-.86,2.26-.49.55-1.19.82-2.09.82h-6.89v-3.24h5.62c.41,0,.62-.49.62-1.48v-2.83h-4.22c-1.2,0-1.8-.6-1.8-1.8v-6.03h3.08v4.22c0,.44.18.66.53.66h2.42v-6.52h-6.89v-3.45l3.24-5.58h-3.08v-3.81l4.8-7.38Zm12.3,0h3.9l-4.76,7.92h3.81c.22,0,.33-.05.33-.16l-1.03-3.12h3.28l.86,2.67c.05.05.11.26.16.62v1.64c0,1.09-.66,1.64-1.97,1.64h-2.3l-2.95,5.58h3.94c.22,0,.33-.05.33-.16l-.82-3.28h3.24l.74,2.79c.03.08.07.3.12.66v1.64c0,1.09-.6,1.64-1.8,1.64h-4.63v6.69h2.67c.33,0,.49-.16.49-.49v-4.39h3.12v6.19c0,1.2-.6,1.8-1.8,1.8h-4.47v7.75h-3.77v-17.55h-1.31v-4.31l2.83-4.55h-2.99v-4.14l4.8-7.05Z" style="fill:#231f20;"/><path d="m475.68,452.57v19.52c0,1.78-.45,3.08-1.35,3.9-.9.9-2.49,1.35-4.76,1.35v-3.77c1.2-.36,1.8-.9,1.8-1.64v-30.97h34.95v8.53c0,2.05-1.04,3.08-3.12,3.08h-27.52Zm0-7.67v3.9h25.72c.57,0,.86-.26.86-.78v-3.12h-26.58Zm29.7,11.28v3.45h-5.62v2.95h6.4v3.61h-22.15v6.89c0,.44.29.66.86.66h4.39v3.45h-7.05c-1.64,0-2.46-.66-2.46-1.97v-9.02h-2.42v-3.61h5.09v-2.95h-4.59v-3.45h4.59v-2.3h4.39v2.3h8.41v-2.3h4.55v2.3h5.62Zm-18.58,6.4h8.41v-2.95h-8.41v2.95Zm13.82,4.8h4.59c-.16,1.75-.59,2.99-1.27,3.73-.68.66-1.64.98-2.87.98h-6.03l.45.98c.25.57.64.86,1.19.86h9.19v3.4h-11.53c-1.48,0-2.5-.82-3.08-2.46l-3.61-7.34h5.04l.94,1.8h5.62c.63,0,1.08-.66,1.35-1.97Z" style="fill:#231f20;"/><polygon points="275 144.53 275 119.51 188.09 194.23 275 268.94 275 243.92 217.2 194.23 275 144.53" style="fill:#231f20; stroke:#231f20; stroke-miterlimit:10; stroke-width:8px;"/><polyline points="275 243.92 299.47 264.97 299.47 123.48 275 144.53" style="fill:none; stroke:#000; stroke-miterlimit:10; stroke-width:8px;"/><rect x="325.88" y="120.01" width="110.28" height="148.43" style="fill:none; stroke:#000; stroke-miterlimit:10; stroke-width:8px;"/><rect x="350.59" y="157.12" width="111.55" height="74.21" style="fill:#231f20; stroke:#000; stroke-miterlimit:10; stroke-width:9.13px;"/><line x1="373.7" y1="194.23" x2="433.95" y2="194.23" style="fill:#fff; stroke:#fff; stroke-miterlimit:10; stroke-width:8px;"/><polygon points="159.83 194.23 250.11 271.84 250.11 116.61 159.83 194.23" style="fill:none; stroke:#000; stroke-miterlimit:10; stroke-width:8px;"/></svg>