<?xml version="1.0" encoding="UTF-8"?><svg id="a" xmlns="http://www.w3.org/2000/svg" viewBox="0 0 600 600"><path d="m87.95,351.7c.06-9.84,2.78-17.46,8.18-22.85,5.39-5.39,12.83-8.09,22.32-8.09h5.75v7.78h-6.81c-6.54,0-11.57,2.17-15.07,6.5-3.51,4.33-5.32,9.89-5.44,16.67.12,6.78,1.93,12.33,5.44,16.67,3.51,4.33,8.53,6.5,15.07,6.5h6.81v7.78h-5.75c-9.49,0-16.93-2.7-22.32-8.09-5.39-5.39-8.12-13.01-8.18-22.85Z" style="fill:#231f20;"/><path d="m169.46,374.86v7.78h-12.91c-2.42,0-4.32-.04-5.7-.13-1.39-.09-3.11-.44-5.17-1.06-2.06-.62-3.8-1.55-5.22-2.79-2.18-2-3.6-4.41-4.24-7.21-.65-2.8-.97-6.08-.97-9.86v-40.84h8.31v40.67c0,3.42.38,6.1,1.15,8.04,1.53,3.6,4.74,5.39,9.64,5.39h15.12Z" style="fill:#231f20;"/><path d="m212.69,320.76h8.31v42.44c0,7.01-1.81,12.16-5.44,15.43-3.62,3.27-9.09,4.91-16.4,4.91s-12.76-1.64-16.36-4.91c-3.6-3.27-5.39-8.41-5.39-15.43v-42.44h8.31v43.58c0,4.01,1.22,6.91,3.67,8.71,2.44,1.8,5.67,2.7,9.68,2.7s7.43-.9,9.9-2.7c2.48-1.8,3.71-4.7,3.71-8.71v-43.58Z" style="fill:#231f20;"/><path d="m240.71,382.64h-8.22v-42.17c0-6.07,1.96-11.02,5.88-14.85,3.92-3.83,8.77-5.75,14.54-5.75,6.37,0,11.15,1.61,14.37,4.82,3.21,3.21,4.82,7.15,4.82,11.8,0,5.95-2.77,10.23-8.31,12.82v.35c7.6,2.18,11.41,7.46,11.41,15.83,0,11.44-6.75,17.15-20.25,17.15h-11.05v-7.78h10.96c4.07,0,7.04-.82,8.93-2.48,1.89-1.65,2.83-4.3,2.83-7.96,0-3.18-1.02-5.63-3.05-7.34-2.03-1.71-4.79-2.56-8.27-2.56h-8.75v-7.34h5.66c3.18,0,5.91-.87,8.18-2.61,2.27-1.74,3.4-4.08,3.4-7.03s-.87-5.19-2.61-7.07c-1.74-1.89-4.55-2.83-8.44-2.83-3.54,0-6.42,1.11-8.66,3.32-2.24,2.21-3.36,5.44-3.36,9.68v41.99Z" style="fill:#231f20;"/><path d="m340.7,382.64h-35.19v-47.12c0-4.36,1.38-7.87,4.16-10.52,1.89-1.77,4.01-2.92,6.37-3.45,2.36-.53,5.25-.8,8.66-.8h16v7.78h-17.15c-6.48,0-9.73,2.71-9.73,8.13v10.08h20.42v7.78h-20.42v20.33h26.88v7.78Z" style="fill:#231f20;"/><path d="m348.66,321.82v-1.06h8.31v1.06c0,11.79,4.16,20.07,12.46,24.84,4.66-2.59,7.91-5.95,9.77-10.08,1.86-4.12,2.79-9.05,2.79-14.76v-1.06h8.49v1.86c0,12.26-4.54,21.48-13.62,27.67,9.08,6.31,13.62,15.53,13.62,27.67v4.69h-8.49v-3.89c0-5.72-.93-10.64-2.79-14.76-1.86-4.12-5.11-7.48-9.77-10.08-8.31,4.77-12.46,13.05-12.46,24.84v3.89h-8.31v-3.89c0-12.61,4.54-22.1,13.62-28.47-9.08-6.25-13.62-15.74-13.62-28.47Z" style="fill:#231f20;"/><path d="m408.51,382.64h-8.31v-40.67c0-6.95,1.87-12.38,5.61-16.27,3.74-3.89,8.71-5.83,14.9-5.83,6.6,0,11.71,1.89,15.34,5.66,3.62,3.77,5.44,8.58,5.44,14.41,0,3.66-.66,6.84-1.99,9.55-1.33,2.71-3.11,4.8-5.35,6.28-2.24,1.47-4.63,2.56-7.16,3.27-2.54.71-5.19,1.06-7.96,1.06h-6.63v-7.78h7.6c3.95,0,7.06-1.19,9.33-3.58,2.27-2.39,3.4-5.38,3.4-8.97s-1.05-6.44-3.14-8.71c-2.09-2.27-5.08-3.4-8.97-3.4s-6.73,1.28-8.88,3.85c-2.15,2.56-3.23,5.94-3.23,10.12v41.02Z" style="fill:#231f20;"/><path d="m449.88,351.97c.06-4.89.8-9.31,2.21-13.26,1.42-3.95,3.39-7.32,5.92-10.12,2.53-2.8,5.57-4.95,9.11-6.45s7.48-2.25,11.85-2.25,8.24.75,11.8,2.25c3.57,1.5,6.62,3.66,9.15,6.45,2.53,2.8,4.51,6.17,5.92,10.12,1.41,3.95,2.15,8.37,2.21,13.26-.06,4.89-.78,9.28-2.17,13.17-1.39,3.89-3.35,7.19-5.88,9.9-2.54,2.71-5.58,4.8-9.15,6.28-3.57,1.47-7.53,2.21-11.89,2.21s-8.33-.74-11.89-2.21c-3.57-1.47-6.62-3.57-9.15-6.28-2.54-2.71-4.5-6.01-5.88-9.9-1.39-3.89-2.11-8.28-2.17-13.17Zm49.24,0c-.06-3.3-.55-6.42-1.46-9.37-.91-2.95-2.24-5.53-3.98-7.74-1.74-2.21-3.85-3.96-6.32-5.26-2.48-1.3-5.28-1.95-8.4-1.95s-5.92.65-8.4,1.95c-2.48,1.3-4.58,3.05-6.32,5.26-1.74,2.21-3.07,4.79-3.98,7.74-.91,2.95-1.4,6.07-1.46,9.37.06,3.36.54,6.48,1.46,9.37.91,2.89,2.24,5.39,3.98,7.51,1.74,2.12,3.85,3.8,6.32,5.04,2.48,1.24,5.27,1.86,8.4,1.86s5.92-.62,8.4-1.86c2.48-1.24,4.58-2.92,6.32-5.04,1.74-2.12,3.06-4.63,3.98-7.51.91-2.89,1.4-6.01,1.46-9.37Z" style="fill:#231f20;"/><path d="m124.9,466.35h-6.65v-49.51h17.47c5.85,0,10.21,1.31,13.08,3.93,2.88,2.62,4.31,6.73,4.31,12.34v33.24h-6.65v-34.16c0-3.21-.98-5.53-2.94-6.97-1.96-1.44-4.54-2.16-7.74-2.16h-10.89v43.29Z" style="fill:#231f20;"/><path d="m187.63,416.84v6.22h-12.52c-4.76,0-7.14,1.93-7.14,5.8,0,2.08,1.05,3.83,3.15,5.27,2.1,1.44,4.94,2.82,8.52,4.14,1.6.61,2.97,1.24,4.1,1.87,1.13.64,2.26,1.47,3.4,2.51s1.98,2.37,2.55,4c.57,1.63.85,3.5.85,5.62,0,2.36-.5,4.47-1.49,6.33s-2.26,3.32-3.82,4.38c-1.56,1.06-3.15,1.86-4.77,2.4-1.63.54-3.22.84-4.77.88-.66.05-1.6.07-2.83.07h-11.03v-6.22h10.82c3.21,0,5.82-.67,7.85-2.02,2.03-1.34,3.04-3.31,3.04-5.91,0-1.27-.28-2.39-.85-3.36-.57-.97-1.38-1.8-2.44-2.51-1.06-.71-2.15-1.32-3.25-1.84-1.11-.52-2.44-1.06-4-1.63-.42-.14-.75-.26-.99-.35-7.4-2.83-11.1-7.45-11.1-13.86,0-3.96,1.27-6.92,3.82-8.88,2.55-1.96,5.87-2.94,9.97-2.94h12.94Z" style="fill:#231f20;"/><path d="m228.58,416.84v3.54c0,5.75-1.07,11.02-3.22,15.81-2.15,4.79-5.27,8.43-9.37,10.93v19.24h-6.65v-19.1c-4.1-2.45-7.26-6.02-9.48-10.71-2.22-4.69-3.32-9.87-3.32-15.52v-4.17h6.79v3.54c0,4.86.69,9.02,2.09,12.48,1.39,3.47,3.81,6.31,7.25,8.52,6.18-4.1,9.27-11.1,9.27-21.01v-3.54h6.65Z" style="fill:#231f20;"/><path d="m261.68,416.84v6.22h-12.52c-4.76,0-7.14,1.93-7.14,5.8,0,2.08,1.05,3.83,3.15,5.27,2.1,1.44,4.94,2.82,8.52,4.14,1.6.61,2.97,1.24,4.1,1.87s2.26,1.47,3.39,2.51c1.13,1.04,1.98,2.37,2.55,4,.57,1.63.85,3.5.85,5.62,0,2.36-.5,4.47-1.49,6.33s-2.26,3.32-3.82,4.38c-1.56,1.06-3.15,1.86-4.77,2.4-1.63.54-3.22.84-4.77.88-.66.05-1.6.07-2.83.07h-11.03v-6.22h10.82c3.21,0,5.82-.67,7.85-2.02,2.03-1.34,3.04-3.31,3.04-5.91,0-1.27-.28-2.39-.85-3.36-.57-.97-1.38-1.8-2.44-2.51s-2.15-1.32-3.25-1.84c-1.11-.52-2.44-1.06-4-1.63-.42-.14-.75-.26-.99-.35-7.4-2.83-11.1-7.45-11.1-13.86,0-3.96,1.27-6.92,3.82-8.88,2.55-1.96,5.87-2.94,9.97-2.94h12.94Z" style="fill:#231f20;"/><path d="m300.23,416.84h6.65v33.95c0,5.61-1.45,9.72-4.35,12.34-2.9,2.62-7.27,3.92-13.12,3.92s-10.21-1.31-13.08-3.92c-2.88-2.62-4.31-6.73-4.31-12.34v-33.95h6.65v34.87c0,3.21.98,5.53,2.94,6.97,1.96,1.44,4.54,2.16,7.75,2.16s5.94-.72,7.92-2.16c1.98-1.44,2.97-3.76,2.97-6.97v-34.87Z" style="fill:#231f20;"/><path d="m361.33,430.21c0,3.16-.57,5.76-1.7,7.82s-3.01,4.14-5.62,6.26c-2.62,2.12-4.46,3.61-5.52,4.46-1.06.85-2.37,1.95-3.92,3.29-1.56,1.34-2.95,2.72-4.17,4.14-1.23,1.41-2,2.59-2.33,3.54h22.84v6.65h-29.99v-3.11c0-.99.11-1.98.32-2.97.21-.99.68-2.25,1.41-3.78.73-1.53,1.9-3.32,3.5-5.38,1.6-2.05,5.75-5.62,12.45-10.72,3.72-2.88,5.59-6.39,5.59-10.54,0-2.03-.73-3.74-2.19-5.13-1.46-1.39-3.56-2.09-6.29-2.09-4.38,0-7.8,2.55-10.25,7.64l-5.23-4.39c3.54-6.46,8.63-9.69,15.28-9.69,4.95,0,8.83,1.23,11.63,3.68,2.8,2.45,4.21,5.89,4.21,10.33Z" style="fill:#231f20;"/><path d="m369.75,448.88c-.09-1.08-.17-2.26-.21-3.54-.05-1.27-.07-2.59-.07-3.96,0-3.11.2-6.19.6-9.23.4-3.04,1.2-5.74,2.4-8.1,1.2-2.36,2.92-4.27,5.16-5.73,2.24-1.46,5.2-2.19,8.88-2.19s6.86.75,9.12,2.26c2.26,1.51,3.97,3.47,5.13,5.87,1.16,2.4,1.91,5.12,2.26,8.13.35,3.02.53,6.01.53,8.98s-.19,6.2-.57,9.27c-.38,3.07-1.17,5.81-2.37,8.24-1.2,2.43-2.92,4.4-5.16,5.91-2.24,1.51-5.22,2.26-8.95,2.26-3.11,0-5.68-.51-7.71-1.52s-3.67-2.37-4.92-4.07c-1.25-1.7-2.18-3.64-2.79-5.83-.61-2.19-1.06-4.44-1.34-6.75Zm8.63,7.99c1.51,2.64,4.22,3.96,8.13,3.96,1.98,0,3.62-.28,4.92-.85,1.3-.57,2.34-1.57,3.15-3.01.8-1.44,1.37-3.42,1.7-5.94.33-2.52.5-5.74.5-9.65s-.17-7.06-.5-9.58c-.33-2.52-.9-4.51-1.7-5.98-.8-1.46-1.85-2.48-3.15-3.04-1.3-.57-2.94-.85-4.92-.85s-3.62.27-4.92.81c-1.3.54-2.35,1.54-3.15,3.01-.8,1.46-1.37,3.44-1.7,5.94-.33,2.5-.5,5.73-.5,9.69,0,7.73.71,12.9,2.12,15.49Z" style="fill:#231f20;"/><path d="m440.83,430.21c0,3.16-.57,5.76-1.7,7.82s-3.01,4.14-5.62,6.26c-2.62,2.12-4.46,3.61-5.52,4.46-1.06.85-2.37,1.95-3.92,3.29-1.56,1.34-2.95,2.72-4.17,4.14-1.23,1.41-2,2.59-2.33,3.54h22.84v6.65h-29.99v-3.11c0-.99.11-1.98.32-2.97.21-.99.68-2.25,1.41-3.78.73-1.53,1.9-3.32,3.5-5.38,1.6-2.05,5.75-5.62,12.45-10.72,3.72-2.88,5.59-6.39,5.59-10.54,0-2.03-.73-3.74-2.19-5.13-1.46-1.39-3.56-2.09-6.29-2.09-4.38,0-7.8,2.55-10.25,7.64l-5.23-4.39c3.54-6.46,8.63-9.69,15.28-9.69,4.95,0,8.83,1.23,11.63,3.68,2.8,2.45,4.21,5.89,4.21,10.33Z" style="fill:#231f20;"/><path d="m480.02,450.79c0,5.09-1.52,9.08-4.56,11.95-3.04,2.88-7.08,4.31-12.13,4.31-4.38,0-7.96-.82-10.71-2.48-2.76-1.65-4.52-4.05-5.27-7.21l5.23-5.16c.52,2.69,1.69,4.8,3.5,6.33,1.81,1.53,4.16,2.3,7.04,2.3,6.46,0,9.69-3.35,9.69-10.04,0-5.99-3.65-8.98-10.96-8.98h-3.96v-6.65c2.88-.9,5.42-2.37,7.64-4.42,2.22-2.05,3.82-4.47,4.81-7.25h-20.65v-6.65h27.3v1.49c0,7.92-3.04,13.75-9.12,17.47,3.96.9,6.98,2.64,9.05,5.23,2.07,2.59,3.11,5.85,3.11,9.76Z" style="fill:#231f20;"/><polygon points="273 158.29 273 133.26 186.09 207.98 273 282.7 273 257.68 215.2 207.98 273 158.29" style="fill:#231f20; stroke:#231f20; stroke-miterlimit:10; stroke-width:8px;"/><polyline points="273 257.68 297.47 278.73 297.47 137.24 273 158.29" style="fill:none; stroke:#000; stroke-miterlimit:10; stroke-width:8px;"/><rect x="323.88" y="133.77" width="110.28" height="148.43" style="fill:none; stroke:#000; stroke-miterlimit:10; stroke-width:8px;"/><rect x="348.59" y="170.88" width="111.55" height="74.21" style="fill:#231f20; stroke:#000; stroke-miterlimit:10; stroke-width:9.13px;"/><line x1="371.7" y1="207.98" x2="431.95" y2="207.98" style="fill:#fff; stroke:#fff; stroke-miterlimit:10; stroke-width:8px;"/><polygon points="157.83 207.98 248.11 285.6 248.11 130.36 157.83 207.98" style="fill:none; stroke:#000; stroke-miterlimit:10; stroke-width:8px;"/></svg>